<svg width="62" height="50" viewBox="0 0 62 50" fill="none" xmlns="http://www.w3.org/2000/svg">
<path d="M61.0488 6.16519C58.8221 7.15186 56.4301 7.81853 53.9154 8.11986C56.5101 6.56731 58.4513 4.12377 59.3768 1.24519C56.939 2.69316 54.271 3.71238 51.4888 4.25853C49.6178 2.26083 47.1396 0.936729 44.439 0.49179C41.7383 0.046851 38.9664 0.50597 36.5534 1.79787C34.1404 3.08976 32.2215 5.14216 31.0945 7.6364C29.9675 10.1306 29.6955 12.9272 30.3208 15.5919C25.3813 15.3438 20.5491 14.06 16.1379 11.8236C11.7267 9.58722 7.83501 6.44829 4.71544 2.61053C3.64877 4.45053 3.03544 6.58386 3.03544 8.85586C3.03425 10.9012 3.53792 12.9152 4.50178 14.7191C5.46563 16.5231 6.85987 18.0613 8.56077 19.1972C6.58817 19.1344 4.6591 18.6014 2.9341 17.6425V17.8025C2.9339 20.6712 3.92619 23.4515 5.74259 25.6718C7.55899 27.8922 10.0876 29.4157 12.8994 29.9839C11.0695 30.4791 9.151 30.552 7.28877 30.1972C8.0821 32.6655 9.62742 34.8239 11.7084 36.3703C13.7894 37.9167 16.3019 38.7737 18.8941 38.8212C14.4937 42.2756 9.05914 44.1494 3.46477 44.1412C2.47378 44.1415 1.48364 44.0836 0.499435 43.9679C6.17804 47.619 12.7883 49.5567 19.5394 49.5492C42.3928 49.5492 54.8861 30.6212 54.8861 14.2052C54.8861 13.6719 54.8728 13.1332 54.8488 12.5999C57.2789 10.8425 59.3765 8.66625 61.0434 6.17319L61.0488 6.16519Z" fill="white"/>
</svg>
