<svg width="60" height="60" viewBox="0 0 60 60" fill="none" xmlns="http://www.w3.org/2000/svg">
<path fill-rule="evenodd" clip-rule="evenodd" d="M17.9067 0.842687C21.0347 0.698687 22.032 0.666687 30 0.666687C37.968 0.666687 38.9653 0.701354 42.0907 0.842687C45.216 0.98402 47.3493 1.48269 49.216 2.20535C51.1707 2.94402 52.944 4.09869 54.4107 5.59202C55.904 7.05602 57.056 8.82669 57.792 10.784C58.5173 12.6507 59.0133 14.784 59.1573 17.904C59.3013 21.0374 59.3333 22.0347 59.3333 30C59.3333 37.968 59.2987 38.9654 59.1573 42.0933C59.016 45.2134 58.5173 47.3467 57.792 49.2134C57.056 51.1709 55.9021 52.9445 54.4107 54.4107C52.944 55.904 51.1707 57.056 49.216 57.792C47.3493 58.5174 45.216 59.0134 42.096 59.1573C38.9653 59.3013 37.968 59.3334 30 59.3334C22.032 59.3334 21.0347 59.2987 17.9067 59.1573C14.7867 59.016 12.6533 58.5174 10.7867 57.792C8.82912 57.0559 7.05552 55.902 5.58933 54.4107C4.09701 52.9458 2.94217 51.173 2.20533 49.216C1.48267 47.3493 0.986666 45.216 0.842666 42.096C0.698666 38.9627 0.666666 37.9654 0.666666 30C0.666666 22.032 0.701333 21.0347 0.842666 17.9094C0.983999 14.784 1.48267 12.6507 2.20533 10.784C2.94326 8.8269 4.09898 7.05419 5.592 5.58935C7.05611 4.09736 8.82792 2.94254 10.784 2.20535C12.6507 1.48269 14.784 0.986687 17.904 0.842687H17.9067ZM41.8533 6.12269C38.76 5.98135 37.832 5.95202 30 5.95202C22.168 5.95202 21.24 5.98135 18.1467 6.12269C15.2853 6.25335 13.7333 6.73069 12.6987 7.13335C11.3307 7.66669 10.352 8.29869 9.32533 9.32535C8.35212 10.2722 7.60315 11.4248 7.13333 12.6987C6.73067 13.7334 6.25333 15.2854 6.12267 18.1467C5.98133 21.24 5.952 22.168 5.952 30C5.952 37.832 5.98133 38.76 6.12267 41.8534C6.25333 44.7147 6.73067 46.2667 7.13333 47.3014C7.60267 48.5734 8.352 49.728 9.32533 50.6747C10.272 51.648 11.4267 52.3974 12.6987 52.8667C13.7333 53.2694 15.2853 53.7467 18.1467 53.8774C21.24 54.0187 22.1653 54.048 30 54.048C37.8347 54.048 38.76 54.0187 41.8533 53.8774C44.7147 53.7467 46.2667 53.2694 47.3013 52.8667C48.6693 52.3334 49.648 51.7014 50.6747 50.6747C51.648 49.728 52.3973 48.5734 52.8667 47.3014C53.2693 46.2667 53.7467 44.7147 53.8773 41.8534C54.0187 38.76 54.048 37.832 54.048 30C54.048 22.168 54.0187 21.24 53.8773 18.1467C53.7467 15.2854 53.2693 13.7334 52.8667 12.6987C52.3333 11.3307 51.7013 10.352 50.6747 9.32535C49.7278 8.35221 48.5752 7.60325 47.3013 7.13335C46.2667 6.73069 44.7147 6.25335 41.8533 6.12269ZM26.2533 39.0427C28.3458 39.9137 30.6757 40.0313 32.8451 39.3753C35.0146 38.7193 36.889 37.3305 38.1483 35.446C39.4075 33.5615 39.9735 31.2983 39.7495 29.043C39.5254 26.7876 38.5253 24.6799 36.92 23.08C35.8966 22.0573 34.6592 21.2742 33.2969 20.7871C31.9345 20.3 30.4811 20.121 29.0413 20.263C27.6015 20.405 26.2111 20.8645 24.9701 21.6084C23.7292 22.3522 22.6686 23.362 21.8648 24.565C21.061 25.7679 20.5338 27.1341 20.3214 28.5652C20.1089 29.9964 20.2164 31.4568 20.6361 32.8414C21.0558 34.226 21.7773 35.5003 22.7486 36.5726C23.7199 37.6449 24.9169 38.4885 26.2533 39.0427ZM19.3387 19.3387C20.7387 17.9386 22.4009 16.828 24.2301 16.0703C26.0594 15.3126 28.02 14.9226 30 14.9226C31.98 14.9226 33.9406 15.3126 35.7699 16.0703C37.5991 16.828 39.2613 17.9386 40.6613 19.3387C42.0614 20.7388 43.172 22.4009 43.9297 24.2301C44.6874 26.0594 45.0774 28.02 45.0774 30C45.0774 31.98 44.6874 33.9406 43.9297 35.7699C43.172 37.5992 42.0614 39.2613 40.6613 40.6614C37.8338 43.4889 33.9988 45.0774 30 45.0774C26.0012 45.0774 22.1662 43.4889 19.3387 40.6614C16.5111 37.8338 14.9226 33.9988 14.9226 30C14.9226 26.0012 16.5111 22.1662 19.3387 19.3387ZM48.4213 17.168C48.7683 16.8407 49.046 16.4472 49.2381 16.0106C49.4303 15.5741 49.5328 15.1034 49.5398 14.6265C49.5467 14.1496 49.4579 13.6761 49.2786 13.2342C49.0993 12.7922 48.8332 12.3907 48.4959 12.0535C48.1586 11.7162 47.7571 11.45 47.3152 11.2707C46.8732 11.0914 46.3998 11.0026 45.9228 11.0096C45.4459 11.0165 44.9753 11.1191 44.5387 11.3112C44.1022 11.5033 43.7086 11.7811 43.3813 12.128C42.7448 12.8028 42.3963 13.699 42.4099 14.6265C42.4234 15.554 42.7978 16.4397 43.4537 17.0956C44.1097 17.7515 44.9954 18.126 45.9228 18.1395C46.8503 18.153 47.7466 17.8045 48.4213 17.168Z" fill="white"/>
</svg>
