<svg width="64" height="46" viewBox="0 0 64 46" fill="none" xmlns="http://www.w3.org/2000/svg">
<path d="M32.204 0.995972H32.56C35.848 1.00797 52.508 1.12797 57 2.33597C58.358 2.70465 59.5954 3.42326 60.5886 4.42C61.5819 5.41675 62.2961 6.65671 62.66 8.01597C63.064 9.53597 63.348 11.548 63.54 13.624L63.58 14.04L63.668 15.08L63.7 15.496C63.96 19.152 63.992 22.576 63.996 23.324V23.624C63.992 24.4 63.956 28.056 63.668 31.864L63.636 32.284L63.6 32.7C63.4 34.988 63.104 37.26 62.66 38.932C62.2972 40.2918 61.5834 41.5323 60.5899 42.5292C59.5965 43.5262 58.3585 44.2444 57 44.612C52.36 45.86 34.724 45.948 32.28 45.952H31.712C30.476 45.952 25.364 45.928 20.004 45.744L19.324 45.72L18.976 45.704L18.292 45.676L17.608 45.648C13.168 45.452 8.94 45.136 6.992 44.608C5.63396 44.2408 4.39626 43.5231 3.4029 42.5269C2.40953 41.5308 1.69539 40.291 1.332 38.932C0.888 37.264 0.592 34.988 0.392 32.7L0.36 32.28L0.328 31.864C0.13059 29.1536 0.0211995 26.4375 0 23.72L0 23.232C0.008 22.372 0.04 19.4 0.256 16.12L0.284 15.708L0.296 15.5L0.328 15.084L0.416 14.044L0.456 13.628C0.648 11.552 0.932 9.53597 1.336 8.01997C1.69877 6.66016 2.41265 5.41961 3.40605 4.4227C4.39946 3.42579 5.63748 2.70754 6.996 2.33997C8.944 1.81997 13.172 1.49997 17.612 1.29997L18.292 1.27197L18.98 1.24797L19.324 1.23597L20.008 1.20797C23.8148 1.08414 27.6232 1.0148 31.432 0.999972H32.204V0.995972ZM25.6 13.836V33.108L42.228 23.476L25.6 13.836Z" fill="white"/>
</svg>
